%TF.GenerationSoftware,KiCad,Pcbnew,10.0.1*%
%TF.CreationDate,2026-08-08T22:39:12+00:00*%
%TF.ProjectId,WaterQualityMonitor,57617465-7251-4756-916c-6974794d6f6e,rev?*%
%TF.SameCoordinates,Original*%
%TF.FileFunction,Copper,L2,Bot*%
%TF.FilePolarity,Positive*%
%FSLAX46Y46*%
G04 Gerber Fmt 4.6, Leading zero omitted, Abs format (unit mm)*
G04 Created by KiCad (PCBNEW 10.0.1) date 2026-08-08 22:39:12*
%MOMM*%
%LPD*%
G01*
G04 APERTURE LIST*
G04 Aperture macros list*
%AMRoundRect*
0 Rectangle with rounded corners*
0 $1 Rounding radius*
0 $2 $3 $4 $5 $6 $7 $8 $9 X,Y pos of 4 corners*
0 Add a 4 corners polygon primitive as box body*
4,1,4,$2,$3,$4,$5,$6,$7,$8,$9,$2,$3,0*
0 Add four circle primitives for the rounded corners*
1,1,$1+$1,$2,$3*
1,1,$1+$1,$4,$5*
1,1,$1+$1,$6,$7*
1,1,$1+$1,$8,$9*
0 Add four rect primitives between the rounded corners*
20,1,$1+$1,$2,$3,$4,$5,0*
20,1,$1+$1,$4,$5,$6,$7,0*
20,1,$1+$1,$6,$7,$8,$9,0*
20,1,$1+$1,$8,$9,$2,$3,0*%
G04 Aperture macros list end*
%TA.AperFunction,ComponentPad*%
%ADD10RoundRect,0.250001X-0.949999X-0.949999X0.949999X-0.949999X0.949999X0.949999X-0.949999X0.949999X0*%
%TD*%
%TA.AperFunction,ComponentPad*%
%ADD11C,2.400000*%
%TD*%
%TA.AperFunction,ComponentPad*%
%ADD12C,1.600000*%
%TD*%
%TA.AperFunction,ComponentPad*%
%ADD13C,1.700000*%
%TD*%
%TA.AperFunction,ComponentPad*%
%ADD14R,1.700000X1.700000*%
%TD*%
%TA.AperFunction,ComponentPad*%
%ADD15O,3.200000X1.900000*%
%TD*%
%TA.AperFunction,ComponentPad*%
%ADD16RoundRect,0.250001X-1.149999X-1.149999X1.149999X-1.149999X1.149999X1.149999X-1.149999X1.149999X0*%
%TD*%
%TA.AperFunction,ComponentPad*%
%ADD17C,2.800000*%
%TD*%
%TA.AperFunction,ComponentPad*%
%ADD18RoundRect,0.300000X-0.700000X-0.700000X0.700000X-0.700000X0.700000X0.700000X-0.700000X0.700000X0*%
%TD*%
%TA.AperFunction,ComponentPad*%
%ADD19RoundRect,0.300000X0.700000X0.700000X-0.700000X0.700000X-0.700000X-0.700000X0.700000X-0.700000X0*%
%TD*%
%TA.AperFunction,ComponentPad*%
%ADD20RoundRect,0.250000X-1.350000X-1.350000X1.350000X-1.350000X1.350000X1.350000X-1.350000X1.350000X0*%
%TD*%
%TA.AperFunction,ComponentPad*%
%ADD21C,3.200000*%
%TD*%
%TA.AperFunction,ComponentPad*%
%ADD22R,1.800000X1.800000*%
%TD*%
%TA.AperFunction,ComponentPad*%
%ADD23C,1.800000*%
%TD*%
%TA.AperFunction,Conductor*%
%ADD24C,0.200000*%
%TD*%
%TA.AperFunction,Conductor*%
%ADD25C,1.524000*%
%TD*%
G04 APERTURE END LIST*
D10*
%TO.P,C6,1*%
%TO.N,/Power/OUT+*%
X171684785Y-136500000D03*
D11*
%TO.P,C6,2*%
%TO.N,/Power/OUT-*%
X176684785Y-136500000D03*
%TD*%
D12*
%TO.P,C5,1*%
%TO.N,/Power/OUT+*%
X159500000Y-141000000D03*
%TO.P,C5,2*%
%TO.N,/Power/OUT-*%
X162000000Y-141000000D03*
%TD*%
%TO.P,C4,2*%
%TO.N,/MCU/SIG_TURB*%
X129885000Y-96305000D03*
%TO.P,C4,1*%
%TO.N,/Power/OUT-*%
X127385000Y-96305000D03*
%TD*%
%TO.P,C2,2*%
%TO.N,/MCU/SIG_PH*%
X129885000Y-89205000D03*
%TO.P,C2,1*%
%TO.N,/Power/OUT-*%
X127385000Y-89205000D03*
%TD*%
%TO.P,C3,2*%
%TO.N,/MCU/SIG_TDS*%
X129885000Y-92755000D03*
%TO.P,C3,1*%
%TO.N,/Power/OUT-*%
X127385000Y-92755000D03*
%TD*%
D13*
%TO.P,J6,3,Pin_3_3*%
%TO.N,/MCU/DATA_TEMP*%
X128565000Y-85135000D03*
%TO.P,J6,2,Pin_2_2*%
%TO.N,/Power/OUT-*%
X128565000Y-82595000D03*
D14*
%TO.P,J6,1,Pin_1_1*%
%TO.N,/Indicators/+3V3*%
X128565000Y-80055000D03*
%TD*%
D15*
%TO.P,SW1,1,1_1*%
%TO.N,/Indicators/MCU_EN*%
X144060000Y-54275000D03*
X156560000Y-54275000D03*
%TO.P,SW1,2,2_2*%
%TO.N,/Power/OUT-*%
X144060000Y-59275000D03*
X156560000Y-59275000D03*
%TD*%
D16*
%TO.P,J1,1,Pin_1_1*%
%TO.N,/Power/VIN_BAT*%
X131435000Y-54025000D03*
D17*
%TO.P,J1,2,Pin_2_2*%
%TO.N,/Power/BAT_GND*%
X136435000Y-54025000D03*
%TD*%
D14*
%TO.P,J2,1,Pin_1_1*%
%TO.N,/Power/IN+*%
X134785000Y-65845000D03*
D13*
%TO.P,J2,2,Pin_2_2*%
%TO.N,/Power/BAT_GND*%
X134785000Y-68385000D03*
%TO.P,J2,3,Pin_3_3*%
%TO.N,/Power/OUT+*%
X134785000Y-70925000D03*
%TO.P,J2,4,Pin_4_4*%
%TO.N,/Power/OUT-*%
X134785000Y-73465000D03*
%TD*%
D12*
%TO.P,R2,1*%
%TO.N,/Power/OUT-*%
X114075000Y-93505000D03*
%TO.P,R2,2*%
%TO.N,/MCU/SIG_PH*%
X124235000Y-93505000D03*
%TD*%
D10*
%TO.P,C1,1*%
%TO.N,/Power/OUT+*%
X117644569Y-56275000D03*
D11*
%TO.P,C1,2*%
%TO.N,/Power/OUT-*%
X122644569Y-56275000D03*
%TD*%
D12*
%TO.P,R5,1*%
%TO.N,/Indicators/+3V3*%
X143535000Y-70625000D03*
%TO.P,R5,2*%
%TO.N,/Indicators/MCU_EN*%
X153695000Y-70625000D03*
%TD*%
D18*
%TO.P,U1,1,3V3_1*%
%TO.N,/Indicators/+3V3*%
X154000000Y-80000000D03*
%TO.P,U1,2,EN_2*%
%TO.N,/Indicators/MCU_EN*%
X154000000Y-82500000D03*
%TO.P,U1,3,GPIO36_3*%
%TO.N,unconnected-(U1-GPIO36-Pad3)*%
X154000000Y-85000000D03*
%TO.P,U1,4,GPIO39_4*%
%TO.N,unconnected-(U1-GPIO39-Pad4)*%
X154000000Y-87500000D03*
%TO.P,U1,5,GPIO34_5*%
%TO.N,/MCU/SIG_PH*%
X154000000Y-90000000D03*
%TO.P,U1,6,GPIO35_6*%
%TO.N,/MCU/SIG_TDS*%
X154000000Y-92500000D03*
%TO.P,U1,7,GPIO32_7*%
%TO.N,/MCU/SIG_TURB*%
X154000000Y-95000000D03*
%TO.P,U1,8,GPIO33_8*%
%TO.N,unconnected-(U1-GPIO33-Pad8)*%
X154000000Y-97500000D03*
%TO.P,U1,9,GPIO25_9*%
%TO.N,unconnected-(U1-GPIO25-Pad9)*%
X154000000Y-100000000D03*
%TO.P,U1,10,GPIO26_10*%
%TO.N,unconnected-(U1-GPIO26-Pad10)*%
X154000000Y-102500000D03*
%TO.P,U1,11,GPIO27_11*%
%TO.N,unconnected-(U1-GPIO27-Pad11)*%
X154000000Y-105000000D03*
%TO.P,U1,12,GPIO14_12*%
%TO.N,unconnected-(U1-GPIO14-Pad12)*%
X154000000Y-107500000D03*
%TO.P,U1,13,GPIO12_13*%
%TO.N,unconnected-(U1-GPIO12-Pad13)*%
X154000000Y-110000000D03*
%TO.P,U1,14,GND_14*%
%TO.N,/Power/OUT-*%
X154000000Y-112500000D03*
%TO.P,U1,15,GPIO13_15*%
%TO.N,unconnected-(U1-GPIO13-Pad15)*%
X154000000Y-115000000D03*
%TO.P,U1,16,GPIO9_/_SO2_16*%
%TO.N,unconnected-(U1-GPIO9_{slash}_SO2-Pad16)*%
X154000000Y-117500000D03*
%TO.P,U1,17,GPIO10__/_S03_17*%
%TO.N,unconnected-(U1-GPIO10__{slash}_S03-Pad17)*%
X154000000Y-120000000D03*
%TO.P,U1,18,GPIO11_/_CMD_18*%
%TO.N,unconnected-(U1-GPIO11_{slash}_CMD-Pad18)*%
X154000000Y-122500000D03*
%TO.P,U1,19,V5_19*%
%TO.N,/Power/OUT+*%
X154000000Y-125000000D03*
D19*
%TO.P,U1,20,GPIO6_/_CLK_20*%
%TO.N,unconnected-(U1-GPIO6_{slash}_CLK-Pad20)*%
X176000000Y-125000000D03*
%TO.P,U1,21,GPIO7__/_SD0_21*%
%TO.N,unconnected-(U1-GPIO7__{slash}_SD0-Pad21)*%
X176000000Y-122500000D03*
%TO.P,U1,22,GPIO8__/_SD1_22*%
%TO.N,unconnected-(U1-GPIO8__{slash}_SD1-Pad22)*%
X176000000Y-120000000D03*
%TO.P,U1,23,GPIO15_23*%
%TO.N,unconnected-(U1-GPIO15-Pad23)*%
X176000000Y-117500000D03*
%TO.P,U1,24,GPIO2_24*%
%TO.N,unconnected-(U1-GPIO2-Pad24)*%
X176000000Y-115000000D03*
%TO.P,U1,25,GPIO0_25*%
%TO.N,unconnected-(U1-GPIO0-Pad25)*%
X176000000Y-112500000D03*
%TO.P,U1,26,GPIO4_26*%
%TO.N,/MCU/DATA_TEMP*%
X176000000Y-110000000D03*
%TO.P,U1,27,GPIO16_27*%
%TO.N,/GSM/GSM_TX*%
X176000000Y-107500000D03*
%TO.P,U1,28,GPIO17_28*%
%TO.N,/GSM/GSM_RX*%
X176000000Y-105000000D03*
%TO.P,U1,29,GPIO5_29*%
%TO.N,unconnected-(U1-GPIO5-Pad29)*%
X176000000Y-102500000D03*
%TO.P,U1,30,GPIO18_30*%
%TO.N,unconnected-(U1-GPIO18-Pad30)*%
X176000000Y-100000000D03*
%TO.P,U1,31,GPIO19_31*%
%TO.N,unconnected-(U1-GPIO19-Pad31)*%
X176000000Y-97500000D03*
%TO.P,U1,32,GND_32*%
%TO.N,/Power/OUT-*%
X176000000Y-95000000D03*
%TO.P,U1,33,GPIO21_33*%
%TO.N,unconnected-(U1-GPIO21-Pad33)*%
X176000000Y-92500000D03*
%TO.P,U1,34,GPIO3_/_RXD_34*%
%TO.N,unconnected-(U1-GPIO3_{slash}_RXD-Pad34)*%
X176000000Y-90000000D03*
%TO.P,U1,35,GPIO1_/_TXD_35*%
%TO.N,unconnected-(U1-GPIO1_{slash}_TXD-Pad35)*%
X176000000Y-87500000D03*
%TO.P,U1,36,GPIO22_36*%
%TO.N,unconnected-(U1-GPIO22-Pad36)*%
X176000000Y-85000000D03*
%TO.P,U1,37,GPIO23_37*%
%TO.N,unconnected-(U1-GPIO23-Pad37)*%
X176000000Y-82500000D03*
%TO.P,U1,38,GND_38*%
%TO.N,/Power/OUT-*%
X176000000Y-80000000D03*
%TD*%
D20*
%TO.P,D1,1,K_1*%
%TO.N,/Power/IN+*%
X114875000Y-66925000D03*
D21*
%TO.P,D1,2,A_2*%
%TO.N,/Power/VIN_BAT*%
X130115000Y-66925000D03*
%TD*%
D14*
%TO.P,J3,1,Pin_1_1*%
%TO.N,/Power/OUT+*%
X114795000Y-80055000D03*
D13*
%TO.P,J3,2,Pin_2_2*%
%TO.N,/Power/OUT-*%
X114795000Y-82595000D03*
%TO.P,J3,3,Pin_3_3*%
%TO.N,Net-(J3-Pin_3)*%
X114795000Y-85135000D03*
%TD*%
D22*
%TO.P,D2,1,K_1*%
%TO.N,/Power/OUT-*%
X156945000Y-67285000D03*
D23*
%TO.P,D2,2,A_2*%
%TO.N,Net-(D2-A)*%
X159485000Y-67285000D03*
%TD*%
D14*
%TO.P,J5,1,Pin_1_1*%
%TO.N,/Indicators/+3V3*%
X123975000Y-80055000D03*
D13*
%TO.P,J5,2,Pin_2_2*%
%TO.N,/Power/OUT-*%
X123975000Y-82595000D03*
%TO.P,J5,3,Pin_3_3*%
%TO.N,/MCU/SIG_TURB*%
X123975000Y-85135000D03*
%TD*%
D12*
%TO.P,R1,1*%
%TO.N,Net-(J3-Pin_3)*%
X114075000Y-89455000D03*
%TO.P,R1,2*%
%TO.N,/MCU/SIG_PH*%
X124235000Y-89455000D03*
%TD*%
D14*
%TO.P,J7,1,Pin_1_1*%
%TO.N,/Power/OUT+*%
X154460000Y-132880000D03*
D13*
%TO.P,J7,2,Pin_2_2*%
%TO.N,/Power/OUT-*%
X157000000Y-132880000D03*
%TO.P,J7,3,Pin_3_3*%
%TO.N,/GSM/GSM_TX*%
X159540000Y-132880000D03*
%TO.P,J7,4,Pin_4_4*%
%TO.N,/GSM/GSM_RX*%
X162080000Y-132880000D03*
%TD*%
D12*
%TO.P,R3,1*%
%TO.N,/Indicators/+3V3*%
X114075000Y-97555000D03*
%TO.P,R3,2*%
%TO.N,/MCU/DATA_TEMP*%
X124235000Y-97555000D03*
%TD*%
D14*
%TO.P,J4,1,Pin_1_1*%
%TO.N,/Indicators/+3V3*%
X119385000Y-80055000D03*
D13*
%TO.P,J4,2,Pin_2_2*%
%TO.N,/Power/OUT-*%
X119385000Y-82595000D03*
%TO.P,J4,3,Pin_3_3*%
%TO.N,/MCU/SIG_TDS*%
X119385000Y-85135000D03*
%TD*%
D12*
%TO.P,R4,1*%
%TO.N,/Indicators/+3V3*%
X143535000Y-66575000D03*
%TO.P,R4,2*%
%TO.N,Net-(D2-A)*%
X153695000Y-66575000D03*
%TD*%
%TO.N,/Power/OUT-*%
D24*
X177300000Y-81300000D02*
X176000000Y-80000000D01*
X177300000Y-93700000D02*
X177300000Y-81300000D01*
X176000000Y-95000000D02*
X177300000Y-93700000D01*
X149156470Y-82595000D02*
X114795000Y-82595000D01*
X154948530Y-78700000D02*
X153051470Y-78700000D01*
X155300000Y-79051470D02*
X154948530Y-78700000D01*
X155300000Y-111200000D02*
X155300000Y-79051470D01*
X154000000Y-112500000D02*
X155300000Y-111200000D01*
X153051470Y-78700000D02*
X149156470Y-82595000D01*
X174500000Y-92000000D02*
X154000000Y-112500000D01*
X174500000Y-81500000D02*
X174500000Y-92000000D01*
X176000000Y-80000000D02*
X174500000Y-81500000D01*
X157000000Y-132880000D02*
X162000000Y-137880000D01*
X162000000Y-137880000D02*
X162000000Y-141000000D01*
X172184785Y-141000000D02*
X176684785Y-136500000D01*
X162000000Y-141000000D02*
X172184785Y-141000000D01*
X156560000Y-59275000D02*
X156560000Y-66900000D01*
X156560000Y-66900000D02*
X156945000Y-67285000D01*
X144060000Y-59275000D02*
X156560000Y-59275000D01*
%TO.N,/Power/OUT+*%
D25*
X154460000Y-135960000D02*
X159500000Y-141000000D01*
X154460000Y-132880000D02*
X154460000Y-135960000D01*
%TO.N,/MCU/DATA_TEMP*%
D24*
X128565000Y-93225000D02*
X128565000Y-85135000D01*
X124235000Y-97555000D02*
X128565000Y-93225000D01*
X152980000Y-126300000D02*
X124235000Y-97555000D01*
X159700000Y-126300000D02*
X152980000Y-126300000D01*
X176000000Y-110000000D02*
X159700000Y-126300000D01*
%TO.N,/MCU/SIG_PH*%
X153205000Y-89205000D02*
X154000000Y-90000000D01*
X129885000Y-89205000D02*
X153205000Y-89205000D01*
%TO.N,/MCU/SIG_TDS*%
X129885000Y-92755000D02*
X153745000Y-92755000D01*
X153745000Y-92755000D02*
X154000000Y-92500000D01*
%TO.N,/Indicators/+3V3*%
X134105000Y-80055000D02*
X128565000Y-80055000D01*
X143535000Y-70625000D02*
X134105000Y-80055000D01*
%TD*%
M02*
