M48
; DRILL file KiCad 10.0.1 date 2026-08-08T22:40:11
; FORMAT={-:-/ absolute / metric / decimal}
; #@! TF.CreationDate,2026-08-08T22:40:11+00:00
; #@! TF.GenerationSoftware,Kicad,Pcbnew,10.0.1
; #@! TF.FileFunction,Plated,1,2,PTH
FMAT,2
METRIC
; #@! TA.AperFunction,Plated,PTH,ComponentDrill
T1C0.800
; #@! TA.AperFunction,Plated,PTH,ComponentDrill
T2C0.900
; #@! TA.AperFunction,Plated,PTH,ComponentDrill
T3C1.000
; #@! TA.AperFunction,Plated,PTH,ComponentDrill
T4C1.200
; #@! TA.AperFunction,Plated,PTH,ComponentDrill
T5C1.300
; #@! TA.AperFunction,Plated,PTH,ComponentDrill
T6C1.600
%
G90
G05
T1
X114.075Y-89.455
X114.075Y-93.505
X114.075Y-97.555
X124.235Y-89.455
X124.235Y-93.505
X124.235Y-97.555
X127.385Y-89.205
X127.385Y-92.755
X127.385Y-96.305
X129.885Y-89.205
X129.885Y-92.755
X129.885Y-96.305
X143.535Y-66.575
X143.535Y-70.625
X153.695Y-66.575
X153.695Y-70.625
X159.5Y-141.0
X162.0Y-141.0
T2
X156.945Y-67.285
X159.485Y-67.285
T3
X114.795Y-80.055
X114.795Y-82.595
X114.795Y-85.135
X119.385Y-80.055
X119.385Y-82.595
X119.385Y-85.135
X123.975Y-80.055
X123.975Y-82.595
X123.975Y-85.135
X128.565Y-80.055
X128.565Y-82.595
X128.565Y-85.135
X134.785Y-65.845
X134.785Y-68.385
X134.785Y-70.925
X134.785Y-73.465
X154.0Y-80.0
X154.0Y-82.5
X154.0Y-85.0
X154.0Y-87.5
X154.0Y-90.0
X154.0Y-92.5
X154.0Y-95.0
X154.0Y-97.5
X154.0Y-100.0
X154.0Y-102.5
X154.0Y-105.0
X154.0Y-107.5
X154.0Y-110.0
X154.0Y-112.5
X154.0Y-115.0
X154.0Y-117.5
X154.0Y-120.0
X154.0Y-122.5
X154.0Y-125.0
X154.46Y-132.88
X157.0Y-132.88
X159.54Y-132.88
X162.08Y-132.88
X176.0Y-80.0
X176.0Y-82.5
X176.0Y-85.0
X176.0Y-87.5
X176.0Y-90.0
X176.0Y-92.5
X176.0Y-95.0
X176.0Y-97.5
X176.0Y-100.0
X176.0Y-102.5
X176.0Y-105.0
X176.0Y-107.5
X176.0Y-110.0
X176.0Y-112.5
X176.0Y-115.0
X176.0Y-117.5
X176.0Y-120.0
X176.0Y-122.5
X176.0Y-125.0
T4
X117.645Y-56.275
X122.645Y-56.275
X171.685Y-136.5
X176.685Y-136.5
T5
X131.435Y-54.025
X136.435Y-54.025
X144.06Y-54.275
X144.06Y-59.275
X156.56Y-54.275
X156.56Y-59.275
T6
X114.875Y-66.925
X130.115Y-66.925
M30
